<svg xmlns="http://www.w3.org/2000/svg" viewBox="0 0 154.8 51.44"><title>Asset 3</title><g id="Layer_2" data-name="Layer 2"><g id="Слой_1" data-name="Слой 1"><rect width="3.74" height="51.44" rx="0.46"/><rect x="8.42" y="11.69" width="3.74" height="28.06" rx="0.46"/><rect x="16.84" y="4.68" width="3.74" height="42.09" rx="0.46"/><rect x="25.25" y="7.01" width="3.74" height="37.41" rx="0.46"/><rect x="33.67" y="11.69" width="3.74" height="28.06" rx="0.46"/><rect x="42.09" y="6.78" width="3.74" height="37.88" rx="0.46"/><rect x="50.51" y="11.22" width="3.74" height="29" rx="0.46"/><rect x="58.93" y="7.25" width="3.74" height="36.95" rx="0.46"/><rect x="67.34" y="4.68" width="3.74" height="42.09" rx="0.46"/><rect x="75.76" y="11.22" width="3.74" height="29" rx="0.46"/><rect x="83.71" y="11.69" width="3.74" height="28.06" rx="0.46"/><rect x="92.13" y="4.68" width="3.74" height="42.09" rx="0.46"/><rect x="100.55" y="7.01" width="3.74" height="37.41" rx="0.46"/><rect x="108.97" y="11.69" width="3.74" height="28.06" rx="0.46"/><rect x="117.38" y="6.78" width="3.74" height="37.88" rx="0.46"/><rect x="125.8" y="11.22" width="3.74" height="29" rx="0.46"/><rect x="134.22" y="7.25" width="3.74" height="36.95" rx="0.46"/><rect x="142.64" y="4.68" width="3.74" height="42.09" rx="0.46"/><rect x="151.06" y="11.22" width="3.74" height="29" rx="0.46"/></g></g></svg>