<svg xmlns="http://www.w3.org/2000/svg" viewBox="0 0 470.87 156.48"><defs><style>.cls-1{fill:#bcbcbc;}</style></defs><title>Asset 2</title><g id="Layer_2" data-name="Layer 2"><g id="Слой_1" data-name="Слой 1"><rect class="cls-1" width="11.38" height="156.48" rx="1.4"/><rect class="cls-1" x="25.61" y="35.56" width="11.38" height="85.35" rx="1.4"/><rect class="cls-1" x="51.21" y="14.23" width="11.38" height="128.03" rx="1.4"/><rect class="cls-1" x="76.82" y="21.34" width="11.38" height="113.81" rx="1.4"/><rect class="cls-1" x="102.43" y="35.56" width="11.38" height="85.35" rx="1.4"/><rect class="cls-1" x="128.03" y="20.63" width="11.38" height="115.23" rx="1.4"/><rect class="cls-1" x="153.64" y="34.14" width="11.38" height="88.2" rx="1.4"/><rect class="cls-1" x="179.24" y="22.05" width="11.38" height="112.38" rx="1.4"/><rect class="cls-1" x="204.85" y="14.23" width="11.38" height="128.03" rx="1.4"/><rect class="cls-1" x="230.46" y="34.14" width="11.38" height="88.2" rx="1.4"/><rect class="cls-1" x="254.64" y="35.56" width="11.38" height="85.35" rx="1.4"/><rect class="cls-1" x="280.25" y="14.23" width="11.38" height="128.03" rx="1.4"/><rect class="cls-1" x="305.85" y="21.34" width="11.38" height="113.81" rx="1.4"/><rect class="cls-1" x="331.46" y="35.56" width="11.38" height="85.35" rx="1.4"/><rect class="cls-1" x="357.07" y="20.63" width="11.38" height="115.23" rx="1.4"/><rect class="cls-1" x="382.67" y="34.14" width="11.38" height="88.2" rx="1.4"/><rect class="cls-1" x="408.28" y="22.05" width="11.38" height="112.38" rx="1.4"/><rect class="cls-1" x="433.88" y="14.23" width="11.38" height="128.03" rx="1.4"/><rect class="cls-1" x="459.49" y="34.14" width="11.38" height="88.2" rx="1.4"/></g></g></svg>