<svg xmlns="http://www.w3.org/2000/svg" viewBox="0 0 71 25"><defs><style>.cls-1{fill:#fff;}</style></defs><title>Asset 2</title><g id="Layer_2" data-name="Layer 2"><g id="Слой_1" data-name="Слой 1"><rect class="cls-1" width="71" height="25" rx="12.5"/><path d="M15.93,17.63V5H21c2.25,0,3.73,1.24,3.73,3.16a2.82,2.82,0,0,1-2.26,2.76v.07A3,3,0,0,1,25.34,14c0,2.23-1.62,3.59-4.32,3.59Zm2-7.29h2.21c1.7,0,2.64-.7,2.64-2s-.81-1.83-2.23-1.83H17.9ZM20.62,16c1.77,0,2.71-.73,2.71-2.1s-1-2.07-2.83-2.07H17.9V16Z"/><path d="M30.41,14.23l-2.05,3.4H26.3L29.35,13l-3-4.63h2.12l2,3.35h0l2-3.35h2.1l-3,4.57,3,4.68H32.49l-2-3.4Z"/><path d="M35.35,13c0-3,1.75-4.79,4.39-4.79S44.13,10,44.13,13s-1.74,4.79-4.39,4.79S35.35,16,35.35,13Zm6.84,0c0-2-1-3.23-2.45-3.23S37.29,11,37.29,13s1,3.23,2.45,3.23S42.19,15.06,42.19,13Z"/><path d="M44.74,20.05V16.13h.75c.68-.43,1-1.54,1.07-2.79l.34-5h6.74v7.75h1.43v3.92H53.31V17.63H46.49v2.42Zm7-10.16H48.53l-.26,3.53a5.28,5.28,0,0,1-.72,2.64v.07h4.2Z"/></g></g></svg>