<svg xmlns="http://www.w3.org/2000/svg" viewBox="0 0 411.5 136.75"><title>Asset 3</title><g id="Layer_2" data-name="Layer 2"><g id="Слой_1" data-name="Слой 1"><rect width="9.95" height="136.75" rx="1.23"/><rect x="22.38" y="31.08" width="9.95" height="74.59" rx="1.23"/><rect x="44.76" y="12.43" width="9.95" height="111.89" rx="1.23"/><rect x="67.13" y="18.65" width="9.95" height="99.46" rx="1.23"/><rect x="89.51" y="31.08" width="9.95" height="74.59" rx="1.23"/><rect x="111.89" y="18.03" width="9.95" height="100.7" rx="1.23"/><rect x="134.27" y="29.84" width="9.95" height="77.08" rx="1.23"/><rect x="156.64" y="19.27" width="9.95" height="98.21" rx="1.23"/><rect x="179.02" y="12.43" width="9.95" height="111.89" rx="1.23"/><rect x="201.4" y="29.84" width="9.95" height="77.08" rx="1.23"/><rect x="222.53" y="31.08" width="9.95" height="74.59" rx="1.23"/><rect x="244.91" y="12.43" width="9.95" height="111.89" rx="1.23"/><rect x="267.29" y="18.65" width="9.95" height="99.46" rx="1.23"/><rect x="289.67" y="31.08" width="9.95" height="74.59" rx="1.23"/><rect x="312.04" y="18.03" width="9.95" height="100.7" rx="1.23"/><rect x="334.42" y="29.84" width="9.95" height="77.08" rx="1.23"/><rect x="356.8" y="19.27" width="9.95" height="98.21" rx="1.23"/><rect x="379.18" y="12.43" width="9.95" height="111.89" rx="1.23"/><rect x="401.55" y="29.84" width="9.95" height="77.08" rx="1.23"/></g></g></svg>