<svg xmlns="http://www.w3.org/2000/svg" viewBox="0 0 185.83 61.75"><defs><style>.cls-1{fill:#b2b2b2;}</style></defs><title>Asset 3</title><g id="Layer_2" data-name="Layer 2"><g id="Слой_1" data-name="Слой 1"><rect class="cls-1" width="4.49" height="61.75" rx="0.55"/><rect class="cls-1" x="10.11" y="14.04" width="4.49" height="33.68" rx="0.55"/><rect class="cls-1" x="20.21" y="5.61" width="4.49" height="50.53" rx="0.55"/><rect class="cls-1" x="30.32" y="8.42" width="4.49" height="44.91" rx="0.55"/><rect class="cls-1" x="40.42" y="14.04" width="4.49" height="33.68" rx="0.55"/><rect class="cls-1" x="50.53" y="8.14" width="4.49" height="45.47" rx="0.55"/><rect class="cls-1" x="60.63" y="13.47" width="4.49" height="34.81" rx="0.55"/><rect class="cls-1" x="70.74" y="8.7" width="4.49" height="44.35" rx="0.55"/><rect class="cls-1" x="80.84" y="5.61" width="4.49" height="50.53" rx="0.55"/><rect class="cls-1" x="90.95" y="13.47" width="4.49" height="34.81" rx="0.55"/><rect class="cls-1" x="100.49" y="14.04" width="4.49" height="33.68" rx="0.55"/><rect class="cls-1" x="110.6" y="5.61" width="4.49" height="50.53" rx="0.55"/><rect class="cls-1" x="120.7" y="8.42" width="4.49" height="44.91" rx="0.55"/><rect class="cls-1" x="130.81" y="14.04" width="4.49" height="33.68" rx="0.55"/><rect class="cls-1" x="140.91" y="8.14" width="4.49" height="45.47" rx="0.55"/><rect class="cls-1" x="151.02" y="13.47" width="4.49" height="34.81" rx="0.55"/><rect class="cls-1" x="161.12" y="8.7" width="4.49" height="44.35" rx="0.55"/><rect class="cls-1" x="171.23" y="5.61" width="4.49" height="50.53" rx="0.55"/><rect class="cls-1" x="181.33" y="13.47" width="4.49" height="34.81" rx="0.55"/></g></g></svg>