<svg xmlns="http://www.w3.org/2000/svg" viewBox="0 0 14.26 52.71"><defs><style>.cls-1{fill:#333;}</style></defs><title>Asset 4</title><g id="Layer_2" data-name="Layer 2"><g id="Слой_1" data-name="Слой 1"><path class="cls-1" d="M14.09,43.3H1.22v8.08H14.09v1.33H0V42H14.09Z"/><path class="cls-1" d="M9,39.86c-3.23,0-5.24-1.87-5.24-4.63s2-4.62,5.24-4.62,5.25,1.86,5.25,4.62S12.24,39.86,9,39.86Zm0-7.95c-2.57,0-4.1,1.33-4.1,3.32S6.44,38.54,9,38.54s4.11-1.31,4.11-3.31S11.59,31.91,9,31.91Z"/><path class="cls-1" d="M14.09,28.71H3.94V27.43H12.1v-.07L3.94,21.71V20.43H14.09v1.28H5.93v.06l8.16,5.66Z"/><path class="cls-1" d="M7,11.07a2.84,2.84,0,0,0-2,2.88c0,2,1.62,3.26,4.1,3.26s4.11-1.29,4.11-3.28a2.77,2.77,0,0,0-2-2.85V9.79a4,4,0,0,1,3.11,4.15c0,2.78-2,4.59-5.25,4.59S3.77,16.72,3.77,14A4,4,0,0,1,7,9.79Z"/><path class="cls-1" d="M14.09,0V1.7L9.14,6.64V6.7h4.95V8H3.94V6.7H8.5V6.64L3.94,1.83V.2L8.77,5.33Z"/></g></g></svg>