<svg xmlns="http://www.w3.org/2000/svg" viewBox="0 0 31.69 31.69"><defs><style>.cls-1{fill:#c4c4c4;fill-rule:evenodd;}</style></defs><title>Asset 1</title><g id="Layer_2" data-name="Layer 2"><g id="Слой_1" data-name="Слой 1"><path class="cls-1" d="M15.85,29.71A13.87,13.87,0,1,1,29.71,15.85,13.88,13.88,0,0,1,15.85,29.71M15.85,0A15.85,15.85,0,1,1,0,15.85,15.87,15.87,0,0,1,15.85,0Zm6.64,10.6a1,1,0,0,0,.29-.7,1,1,0,0,0-1-1,1,1,0,0,0-.7.29l-5.24,5.25L10.6,9.2a1,1,0,0,0-1.69.7,1,1,0,0,0,.29.7l5.25,5.25L9.2,21.09a1,1,0,0,0-.29.7,1,1,0,0,0,1,1,1,1,0,0,0,.69-.29l5.25-5.24,5.24,5.24a1,1,0,1,0,1.4-1.4l-5.24-5.24Z"/></g></g></svg>