<svg xmlns="http://www.w3.org/2000/svg" viewBox="0 0 207.34 207.34"><defs><style>.cls-1{fill:#fff;}</style></defs><title>1Ресурс 2</title><g id="Слой_2" data-name="Слой 2"><g id="Слой_1-2" data-name="Слой 1"><path class="cls-1" d="M103.67,0A103.67,103.67,0,1,0,207.34,103.67,103.82,103.82,0,0,0,103.67,0Zm0,19.29a84.39,84.39,0,1,1-84.38,84.38A84.24,84.24,0,0,1,103.67,19.29Zm-19,38.57c-5.25.13-9.82,4.61-10,11v69.55c.18,8.53,8.25,13.7,15.3,9.64l56.65-34.88a11.27,11.27,0,0,0,0-19L90,59.3a10.25,10.25,0,0,0-5.35-1.44Z"/></g></g></svg>